# xmcd CD database file
# Copyright (C) 1993-1998 Ti Kan
# 
# Track frame offsets:
#     182
#     17755
#     34107
#     54715
#     65270
#     83850
#     99677
#     121007
#     142382
#     162285
# 
# Disc length: 2438 seconds
# 
# Revision: 1
# Processed by: cddbd v1.4b41PL1 Copyright (c) Steve Scherf et al.
# Submitted via: DiscPlay 4.0.4
# 
DISCID=8609840a
DTITLE=Amos Garrett - Amosbehavin'
DYEAR=1900
DGENRE=
TTITLE0=I Can't Quit You
TTITLE1=Baton Rouge
TTITLE2=Some Cats Know
TTITLE3=Stella Ain't Got No Brains
TTITLE4=New Orleans
TTITLE5=Little Sister
TTITLE6=Ha Ha in the Daytime
TTITLE7=Cardiac Arrest
TTITLE8=Love Song of the Nile
TTITLE9=Imojochu
EXTD=
EXTT0=
EXTT1=
EXTT2=
EXTT3=
EXTT4=
EXTT5=
EXTT6=
EXTT7=
EXTT8=
EXTT9=
PLAYORDER=
